<?xml version="1.0" encoding="utf-8"?>
<!-- Generator: Adobe Illustrator 21.1.0, SVG Export Plug-In . SVG Version: 6.00 Build 0)  -->
<svg version="1.1" id="Layer_1" xmlns="http://www.w3.org/2000/svg" xmlns:xlink="http://www.w3.org/1999/xlink" x="0px" y="0px"
	 viewBox="0 0 792 360" style="enable-background:new 0 0 792 360;" xml:space="preserve">
<style type="text/css">
	.st0{fill:#FFFFFF;}
	.st1{fill:#732282;}
	.st2{fill:#FFFFFE;}
</style>
<g>
	<path class="st0" d="M178.8,360C80.1,360,0.1,279.4,0.1,180l0,0c0-99.4,80-180,178.7-180h434.7c98.7,0,178.7,80.6,178.7,180l0,0
		c0,99.4-80,180-178.7,180H178.8z"/>
	<path class="st1" d="M181.8,344.2c-90.5,0-163.9-73.9-163.9-165.1l0,0C17.9,87.9,91.3,14,181.8,14h428.6
		c90.5,0,163.9,73.9,163.9,165.1l0,0c0,91.2-73.4,165.1-163.9,165.1H181.8z"/>
	<g>
		<path class="st0" d="M138.3,142.2c3.9,0,7.7,1.2,10.8,3.6l7.8-10.4c-5.4-4-11.8-6.2-18.6-6.2c-17.1,0-31.1,13.9-31.1,31.1
			c0,17.1,13.9,31.1,31.1,31.1c6.6,0,12.8-2,18.1-5.8l-7.6-10.6c-3.1,2.2-6.7,3.4-10.5,3.4c-10,0-18.1-8.1-18.1-18.1
			C120.2,150.3,128.3,142.2,138.3,142.2z"/>
		<path class="st0" d="M272.7,178.4c-10,0-18.1-8.1-18.1-18.1c0-10,8.1-18.1,18.1-18.1c3.9,0,7.7,1.2,10.8,3.6l7.8-10.4
			c-5.4-4-11.8-6.2-18.6-6.2c-17.1,0-31.1,13.9-31.1,31.1c0,17.1,14,31.1,31.1,31.1c6.5,0,12.8-2,18.1-5.8l-7.6-10.6
			C280.1,177.2,276.5,178.4,272.7,178.4z"/>
		<path class="st0" d="M221.4,190.9h13c0,0,0-48.4,0-50.1s-0.5-5.3-4.5-7.4c-3.9-2.2-8.5-1.8-8.5-1.8V190.9z"/>
		<path class="st0" d="M198.8,130.2c-3-1-6.2-1.5-9.4-1.5c-17.1,0-31.1,14-31.1,31.1c0,17.1,13.9,31.1,31.1,31.1
			c3.6,0,8.9-0.1,12-0.1h10.4v-84.3c0,0-5.5-0.6-9.4,2.1c-3.9,2.7-3.6,8.8-3.6,8.8V130.2z M171.3,159.8c0-10,8.1-18.1,18.1-18.1
			c3.4,0,6.6,0.9,9.4,2.6v33.5c-3,0-6.7,0.1-9.4,0.1C179.4,177.9,171.3,169.8,171.3,159.8z"/>
	</g>
	<path class="st0" d="M539.8,159.9c-4.9-4.1-12.8-6.6-13.7-6.9l0,0c-2.4-0.7-7-2.6-9-4.3c-0.4-0.4-2.3-2.2-1.5-5.2
		c1-1.9,1.8-2.5,8.1-2.5c10.7,0,19.8,0.1,19.8,0.1l0.1-13c0,0-9.1,0-19.8,0c-12.4,0-16.6,3.5-20,10l-0.4,0.9
		c-2.9,8.5,0.8,15.8,5.1,19.6c4.9,4.1,12.8,6.6,13.7,6.9l0,0c2.4,0.7,7,2.6,9,4.3c0.4,0.4,2.3,2.2,1.4,5.2c-1,1.9-1.8,2.5-8.1,2.5
		c-10.7,0-19.8-0.1-19.8-0.1l-0.1,13c0,0,9.1,0,19.8,0c12.4,0,16.6-3.5,19.9-10l0.4-0.9C547.8,171,544.1,163.6,539.8,159.9z"/>
	<path class="st0" d="M649.2,129c-3-1-6.2-1.5-9.4-1.5c-17.2,0-31.1,14-31.1,31.1c0,17.1,14,31.1,31.1,31.1c3.6,0,8.9-0.1,12-0.1
		h10.4v-84.3c0,0-5.5-0.6-9.4,2.1c-3.9,2.7-3.6,8.8-3.6,8.8V129z M621.7,158.6c0-10,8.1-18.1,18.1-18.1c3.4,0,6.6,0.9,9.4,2.6v33.5
		c-2.9,0-6.7,0.1-9.4,0.1C629.8,176.7,621.7,168.6,621.7,158.6z"/>
	<path class="st0" d="M580.4,127.9c-17.1,0-31.1,13.9-31.1,31.1s14,31.1,31.1,31.1c3.2,0,6.6-1,9.4-3.1v3h13v-49.7
		c0,0,0.1-4.7-3.2-8.5c-3.4-3.8-9.8-3.8-9.8-3.8S583.2,127.9,580.4,127.9z M580.4,177.1c-10,0-18.1-8.1-18.1-18.1
		c0-10,8.1-18.1,18.1-18.1c2.8,0,6.5,0,9.4,0.1v31.8C586.9,175.8,583.8,177.1,580.4,177.1z"/>
	<path class="st0" d="M699.1,176.8c-10,0-18.1-8.1-18.1-18.1c0-10,8.1-18.1,18.1-18.1c3.9,0,7.7,1.2,10.8,3.6l7.8-10.4
		c-5.4-4-11.8-6.2-18.6-6.2c-17.1,0-31.1,13.9-31.1,31.1c0,17.1,14,31.1,31.1,31.1c6.6,0,12.8-2,18.1-5.8l-7.6-10.6
		C706.6,175.6,702.9,176.8,699.1,176.8z"/>
	<g>
		<path class="st2" d="M509.6,217.4h-1.8v7.6h-4v-20.7h6.1c4.7,0,7.6,2.2,7.6,6.4C517.6,215.2,514.4,217.4,509.6,217.4z
			 M509.8,207.5h-1.9v6.7h1.7c2.5,0,4-1,4-3.4C513.7,208.6,512.3,207.5,509.8,207.5z"/>
		<path class="st2" d="M531.4,225.2l-5.5-8.1h-1.7v7.9h-4v-20.7h6.4c4.6,0,7.4,2.2,7.4,6.2c0,3-1.6,4.9-4.2,5.8l5.6,8.1L531.4,225.2
			z M526.4,207.5h-2.2v6.6h2c2.5,0,4-1.2,4-3.3C530.2,208.7,528.9,207.5,526.4,207.5z"/>
		<path class="st2" d="M546.4,225.4c-5.9,0-9.7-4.3-9.7-10.7c0-6.4,3.8-10.8,9.8-10.8c5.9,0,9.7,4.3,9.7,10.7
			S552.3,225.4,546.4,225.4z M546.4,207.2c-3.5,0-5.7,2.9-5.7,7.4s2.1,7.4,5.7,7.4c3.6,0,5.7-2.9,5.7-7.4S550,207.2,546.4,207.2z"/>
		<path class="st2" d="M567.9,207.8V225h-4v-17.3h-6.2v-3.4h16.1l0.6,3.4H567.9z"/>
		<path class="st2" d="M577,225v-20.7h12v3.4h-8.1v4.9h6.2l0.5,3.3h-6.8v5.7h8.4v3.4L577,225L577,225z"/>
		<path class="st2" d="M601.1,225.4c-6,0-9.8-4.3-9.8-10.7c0-6.4,3.9-10.7,9.8-10.7c2.4,0,4.3,0.6,5.8,1.5l-0.6,3.8
			c-1.3-1-3-1.8-5-1.8c-3.7,0-5.9,2.8-5.9,7.3c0,4.6,2.4,7.3,6.1,7.3c1.9,0,3.7-0.7,5.3-1.7l0.5,3.4
			C605.6,224.7,603.5,225.4,601.1,225.4z"/>
		<path class="st2" d="M619.6,207.8V225h-4v-17.3h-6.2v-3.4h16.1l0.6,3.4H619.6z"/>
		<path class="st2" d="M628.8,225v-20.7h4V225H628.8z"/>
		<path class="st2" d="M646,225.4c-5.9,0-9.7-4.3-9.7-10.7c0-6.4,3.8-10.8,9.8-10.8c5.9,0,9.7,4.3,9.7,10.7S651.9,225.4,646,225.4z
			 M646,207.2c-3.5,0-5.7,2.9-5.7,7.4s2.1,7.4,5.7,7.4c3.6,0,5.7-2.9,5.7-7.4S649.5,207.2,646,207.2z"/>
		<path class="st2" d="M672.7,225l-9.7-14.3V225h-3.7v-20.7h3.8l9.3,13.6v-13.6h3.7V225H672.7z"/>
		<path class="st2" d="M510.5,259.1h-6.6v-20.7h6.6c7.2,0,10.9,4.2,10.9,10.3C521.4,254.9,517.5,259.1,510.5,259.1z M510.5,241.7
			h-2.6v14.2h2.5c4.3,0,7-2.2,7-7.1C517.4,244,514.6,241.7,510.5,241.7z"/>
		<path class="st2" d="M524.8,259.1v-20.7h12v3.4h-8.1v4.9h6.2l0.5,3.3h-6.8v5.7h8.4v3.4L524.8,259.1L524.8,259.1z"/>
		<path class="st2" d="M546,259.4c-2.5,0-4.7-0.6-6.5-1.4l0.6-3.6c1.7,1,3.9,1.8,6,1.8c1.8,0,3.1-0.9,3.1-2.5c0-1.5-0.7-2.2-3.7-3.5
			c-4-1.6-5.6-3-5.6-6.2c0-3.7,2.8-5.8,6.7-5.8c2.3,0,4,0.5,5.5,1.3l-0.6,3.6c-1.5-1-3.3-1.6-4.9-1.6c-2,0-2.8,1-2.8,2.2
			c0,1.3,0.7,2,3.5,3.1c4.3,1.7,5.8,3.2,5.8,6.4C553,257.3,550,259.4,546,259.4z"/>
		<path class="st2" d="M569.4,259.1h-6.6v-20.7h6.6c7.2,0,10.9,4.2,10.9,10.3C580.3,254.9,576.4,259.1,569.4,259.1z M569.4,241.7
			h-2.6v14.2h2.5c4.3,0,7-2.2,7-7.1C576.3,244,573.5,241.7,569.4,241.7z"/>
		<path class="st2" d="M583.7,259.1v-20.7h12v3.4h-8.1v4.9h6.2l0.5,3.3h-6.8v5.7h8.4v3.4L583.7,259.1L583.7,259.1z M590.7,236.7
			h-2.4l2.2-4.5l4.4,0.8L590.7,236.7z"/>
		<path class="st2" d="M605.1,251.5h-1.8v7.6h-4v-20.7h6.1c4.7,0,7.6,2.2,7.6,6.4C613,249.2,609.9,251.5,605.1,251.5z M605.2,241.6
			h-1.9v6.7h1.7c2.5,0,4-1.1,4-3.4C609.1,242.7,607.8,241.6,605.2,241.6z"/>
		<path class="st2" d="M624.9,259.5c-5.9,0-9.7-4.3-9.7-10.7c0-6.4,3.8-10.8,9.8-10.8c5.9,0,9.7,4.3,9.7,10.7
			S630.8,259.5,624.9,259.5z M624.9,241.3c-3.5,0-5.7,2.9-5.7,7.4s2.1,7.4,5.7,7.4c3.6,0,5.7-2.9,5.7-7.4S628.5,241.3,624.9,241.3z
			 M627.3,236.4l-2.4-2l-2.4,2h-2.3l3-4.3h3.4l3,4.3H627.3z"/>
		<path class="st2" d="M646.4,241.9v17.2h-4v-17.2h-6.2v-3.5h16.1l0.6,3.5H646.4z"/>
		<path class="st2" d="M661.3,259.4c-2.5,0-4.7-0.6-6.5-1.4l0.6-3.6c1.7,1,3.9,1.8,6,1.8c1.8,0,3.1-0.9,3.1-2.5
			c0-1.5-0.7-2.2-3.7-3.5c-4-1.6-5.6-3-5.6-6.2c0-3.7,2.8-5.8,6.7-5.8c2.3,0,4,0.5,5.5,1.3l-0.6,3.6c-1.5-1-3.3-1.6-4.9-1.6
			c-2,0-2.8,1-2.8,2.2c0,1.3,0.7,2,3.5,3.1c4.3,1.7,5.8,3.2,5.8,6.4C668.3,257.3,665.3,259.4,661.3,259.4z"/>
	</g>
	<g>
		<path class="st2" d="M180.2,225h-6.6v-20.7h6.6c7.2,0,10.9,4.2,10.9,10.3C191.1,220.8,187.2,225,180.2,225z M180.1,207.6h-2.6
			v14.2h2.5c4.4,0,7-2.2,7-7.1C187,209.9,184.3,207.6,180.1,207.6z"/>
		<path class="st2" d="M194.5,225v-20.7h12v3.4h-8.1v4.9h6.2l0.5,3.3h-6.8v5.7h8.4v3.4L194.5,225L194.5,225z"/>
		<path class="st2" d="M215.9,217.4h-1.8v7.6h-4v-20.7h6.1c4.7,0,7.6,2.2,7.6,6.4C223.8,215.2,220.6,217.4,215.9,217.4z M216,207.5
			h-1.9v6.7h1.7c2.5,0,4-1,4-3.4C219.9,208.6,218.6,207.5,216,207.5z"/>
		<path class="st2" d="M235.7,225.4c-5.9,0-9.7-4.3-9.7-10.7c0-6.4,3.8-10.8,9.8-10.8c5.9,0,9.7,4.3,9.7,10.7
			S241.6,225.4,235.7,225.4z M235.7,207.2c-3.5,0-5.7,2.9-5.7,7.4c0,4.5,2.1,7.4,5.7,7.4c3.6,0,5.7-2.9,5.7-7.4
			C241.4,210.1,239.2,207.2,235.7,207.2z"/>
		<path class="st2" d="M254.2,225.3c-2.5,0-4.7-0.6-6.5-1.4l0.6-3.6c1.7,1,3.9,1.8,6,1.8c1.8,0,3.1-0.9,3.1-2.5
			c0-1.5-0.7-2.2-3.7-3.5c-4-1.6-5.6-3-5.6-6.2c0-3.7,2.8-5.8,6.7-5.8c2.3,0,4,0.5,5.5,1.3l-0.6,3.6c-1.5-1-3.3-1.6-4.9-1.6
			c-2,0-2.9,1-2.9,2.2c0,1.3,0.7,2,3.5,3.1c4.3,1.7,5.8,3.2,5.8,6.4C261.2,223.2,258.2,225.3,254.2,225.3z"/>
		<path class="st2" d="M264.6,225v-20.7h4V225H264.6z"/>
		<path class="st2" d="M281.5,207.8V225h-4v-17.3h-6.2v-3.4h16.1l0.6,3.4H281.5z"/>
		<path class="st2" d="M120.1,249.2h-1.8v7.6h-4v-20.7h6.1c4.7,0,7.6,2.2,7.6,6.4C128,247,124.8,249.2,120.1,249.2z M120.2,239.3
			h-1.9v6.7h1.7c2.5,0,4-1.1,4-3.4C124.1,240.4,122.8,239.3,120.2,239.3z"/>
		<path class="st2" d="M141.8,257.1l-5.5-8.1h-1.7v7.9h-4v-20.7h6.4c4.6,0,7.4,2.2,7.4,6.2c0,3-1.6,4.9-4.2,5.8l5.6,8.1L141.8,257.1
			z M136.8,239.3h-2.2v6.6h2c2.5,0,4-1.2,4-3.3C140.6,240.5,139.3,239.3,136.8,239.3z"/>
		<path class="st2" d="M156.9,257.2c-5.9,0-9.7-4.3-9.7-10.7c0-6.4,3.8-10.8,9.8-10.8c5.9,0,9.7,4.3,9.7,10.7
			S162.8,257.2,156.9,257.2z M156.9,239.1c-3.5,0-5.7,2.9-5.7,7.4s2.1,7.4,5.7,7.4c3.6,0,5.7-2.9,5.7-7.4S160.4,239.1,156.9,239.1z"
			/>
		<path class="st2" d="M178.3,239.6v17.2h-4v-17.2h-6.2v-3.5h16.1l0.6,3.5H178.3z"/>
		<path class="st2" d="M187.4,256.9v-20.7h12v3.4h-8.1v4.9h6.2l0.5,3.3h-6.8v5.7h8.4v3.4L187.4,256.9L187.4,256.9z"/>
		<path class="st2" d="M211.6,257.2c-6,0-9.8-4.3-9.8-10.7c0-6.4,3.9-10.7,9.8-10.7c2.4,0,4.3,0.6,5.8,1.5l-0.6,3.8
			c-1.4-1-3-1.8-5-1.8c-3.7,0-5.9,2.8-5.9,7.3c0,4.6,2.4,7.3,6.1,7.3c1.9,0,3.7-0.7,5.3-1.7l0.5,3.4
			C216,256.5,213.9,257.2,211.6,257.2z"/>
		<path class="st2" d="M230.1,239.6v17.2h-4v-17.2h-6.2v-3.5H236l0.6,3.5H230.1z"/>
		<path class="st2" d="M239.2,256.9v-20.7h4v20.7H239.2z"/>
		<path class="st2" d="M256.4,257.2c-5.9,0-9.7-4.3-9.7-10.7c0-6.4,3.8-10.8,9.8-10.8c5.9,0,9.7,4.3,9.7,10.7
			S262.4,257.2,256.4,257.2z M256.5,239.1c-3.5,0-5.7,2.9-5.7,7.4s2.1,7.4,5.7,7.4c3.6,0,5.7-2.9,5.7-7.4S260,239.1,256.5,239.1z"/>
		<path class="st2" d="M283.1,256.9l-9.7-14.2v14.2h-3.7v-20.7h3.8l9.3,13.6v-13.6h3.7v20.7H283.1z"/>
	</g>
	<g>
		<path class="st0" d="M446,105.6c-0.3-27.2-22.7-49.3-50-49.3c-27.1,0-49.5,22.1-49.9,49.4l0,29.2l2.4-1.5
			c7.2-4.6,15.1-8.1,23.3-10.4l1.1-0.3l0-16.7c0.2-12.5,10.6-22.8,23.1-22.8c12.6,0,23,10.2,23.1,23.1c0,1.1,0,5,0,9.5l0,6.9
			l1.1,0.3c8.2,2.3,16,5.8,23.3,10.4l2.4,1.5v-2.9C446.1,114.6,446.1,107.5,446,105.6z"/>
		<path class="st0" d="M396.1,129.2c-43.7,0-79.2,35.5-79.2,79.2c0,43.7,35.5,79.2,79.2,79.2c43.8,0,79.2-35.5,79.2-79.2
			C475.3,164.7,439.9,129.2,396.1,129.2z M423.3,230.5c-3.9,2.8-0.9,9.9-0.1,13.8c-7.7-1.1-15.3-3.1-23.1-3.2
			c-5-0.1-1.1,13.2-1.1,27.2c-1.4,0.6-4.5,0.5-5.7,0c0-12.4,3.9-27.3-1.1-27.2c-7.8,0.1-15.5,2.2-23.2,3.2
			c1.6-8.1,2.8-11.5-3.7-16.7c-6.5-5.3-13-10.5-19.5-15.8c10.3-3.6,4.5-12.6,2.3-20.8c3.4,0.7,9.2,3.3,12.6,2.6
			c4.6,1.5,4.9-4.6,5.6-7.5c3.2,3.6,6.4,7.2,9.6,10.8c1.6,1.8,6.2,4.8,5.3-0.1c-1.6-8.7-3.2-17.4-4.8-26c2.9,1.5,8.7,6.1,11.2,2.3
			c2.9-4.4,5.7-8.8,8.6-13.2c2.8,4.4,5.7,8.8,8.5,13.2c2.5,3.8,8.3-0.8,11.2-2.3c-1.6,8.7-3.2,17.4-4.8,26c-1.1,6.2,5.2,0.2,6.5-1.2
			c2.8-3.2,5.6-6.3,8.4-9.5c1.1,3.8,1,8.5,6.1,7.4c4.1-0.8,8.1-1.7,12.2-2.5c-2.2,8.2-8,17.3,2.3,20.8
			C438.7,218,431,224.2,423.3,230.5z"/>
	</g>
</g>
</svg>
