<svg xmlns="http://www.w3.org/2000/svg" viewBox="0 0 42 20"><defs><style>.cls-1{fill:red}.cls-2{fill:#fff}</style></defs><title>flag_canada</title><g id="Layer_2" data-name="Layer 2"><g id="Layer_1-2" data-name="Layer 1"><path class="cls-1" d="M0 0h42v20H0z"/><path class="cls-2" d="M10.5 0h21v20h-21z"/><path class="cls-1" d="M21 1.88l-1.43 2.54c-.16.28-.45.25-.75.1l-1-.51.77 3.91c.16.71-.36.71-.62.41l-1.84-1.94-.29 1a.35.35 0 0 1-.41.23l-2.29-.46.6 2.08c.13.46.23.66-.13.78l-.82.37 3.94 3a.48.48 0 0 1 .18.51l-.34 1.1c1.36-.15 2.57-.37 3.93-.51a.39.39 0 0 1 .32.31l-.18 3.95h.66l-.1-3.94c0-.13.18-.33.3-.32 1.36.14 2.57.36 3.93.51l-.34-1.08a.48.48 0 0 1 .18-.51l3.94-3-.82-.41c-.36-.12-.26-.31-.13-.78l.6-2.08-2.29.46a.35.35 0 0 1-.41-.23l-.29-1-1.81 1.95c-.26.31-.78.31-.62-.41L24.22 4l-1 .51c-.29.15-.58.18-.75-.1"/></g></g></svg>