<svg id="Layer_1" xmlns="http://www.w3.org/2000/svg" viewBox="0 0 26 21.1"><style>.st0{fill:#fff}</style><path class="st0" d="M8.2 21.1C18 21.1 23.4 13 23.4 6v-.7c1-.8 1.9-1.7 2.7-2.8-1 .4-2 .7-3.1.8 1.1-.7 1.9-1.7 2.3-3-1 .6-2.2 1.1-3.4 1.3-1-1-2.4-1.7-3.9-1.7-2.9 0-5.3 2.4-5.3 5.3 0 .4 0 .8.1 1.2-4.4-.1-8.4-2.2-11-5.4-.4.8-.7 1.7-.7 2.7 0 1.9.9 3.5 2.4 4.4-.9 0-1.7-.3-2.5-.7v.1c0 2.6 1.8 4.7 4.3 5.2-.4.1-.9.2-1.4.2-.3 0-.7 0-1-.1.7 2.1 2.6 3.7 5 3.7-1.8 1.4-4.1 2.3-6.6 2.3-.4 0-.9 0-1.3-.1 2.4 1.5 5.2 2.4 8.2 2.4"/></svg>