<svg xmlns="http://www.w3.org/2000/svg" viewBox="0 0 20 20"><defs><style>.cls-1{fill:#fff}</style></defs><title>instagram_20</title><g id="Layer_2" data-name="Layer 2"><g id="Layer_1-2" data-name="Layer 1"><g id="instagram_20x20"><path class="cls-1" d="M10 4.86A5.14 5.14 0 1 0 15.14 10 5.14 5.14 0 0 0 10 4.86zm0 8.47A3.33 3.33 0 1 1 13.33 10 3.33 3.33 0 0 1 10 13.33z"/><circle class="cls-1" cx="15.34" cy="4.66" r="1.2"/><path class="cls-1" d="M19.48 3.45a4.9 4.9 0 0 0-1.15-1.77A4.9 4.9 0 0 0 16.55.52a7.34 7.34 0 0 0-2.43-.46C13.06 0 12.72 0 10 0S6.94 0 5.88.06a7.34 7.34 0 0 0-2.43.46 4.9 4.9 0 0 0-1.77 1.16A4.9 4.9 0 0 0 .52 3.45a7.34 7.34 0 0 0-.46 2.43C0 6.94 0 7.28 0 10s0 3.06.06 4.12a7.34 7.34 0 0 0 .46 2.43 4.9 4.9 0 0 0 1.15 1.77 4.9 4.9 0 0 0 1.77 1.15 7.34 7.34 0 0 0 2.43.46C6.94 20 7.28 20 10 20s3.06 0 4.12-.06a7.34 7.34 0 0 0 2.43-.46 5.11 5.11 0 0 0 2.92-2.92 7.34 7.34 0 0 0 .46-2.43c0-1.07.06-1.41.06-4.12s0-3.06-.06-4.12a7.34 7.34 0 0 0-.45-2.44zM18.14 14a5.53 5.53 0 0 1-.34 1.86 3.31 3.31 0 0 1-1.9 1.9 5.53 5.53 0 0 1-1.86.34c-1.05 0-1.37.06-4 .06s-3 0-4-.06a5.53 5.53 0 0 1-1.94-.3A3.1 3.1 0 0 1 3 17a3.1 3.1 0 0 1-.8-1.1 5.53 5.53 0 0 1-.34-1.9c0-1.05-.06-1.37-.06-4s0-3 .06-4a5.53 5.53 0 0 1 .34-1.9A3.1 3.1 0 0 1 3 3a3.1 3.1 0 0 1 1.1-.8A5.53 5.53 0 0 1 6 1.86c1.05 0 1.37-.06 4-.06s3 0 4 .06a5.53 5.53 0 0 1 1.86.34A3.1 3.1 0 0 1 17 3a3.1 3.1 0 0 1 .8 1.1 5.53 5.53 0 0 1 .34 1.9c0 1.05.06 1.37.06 4s-.01 3-.06 4z"/></g></g></g></svg>