<?xml version="1.0" encoding="utf-8"?>
<!-- Generator: Adobe Illustrator 20.1.0, SVG Export Plug-In . SVG Version: 6.00 Build 0)  -->
<svg version="1.1" id="Layer_1" xmlns="http://www.w3.org/2000/svg" xmlns:xlink="http://www.w3.org/1999/xlink" x="0px" y="0px"
	 viewBox="0 0 24 24" style="enable-background:new 0 0 24 24;" xml:space="preserve">
<style type="text/css">
	.st0{fill:none;}
	.st1{fill:none;stroke:#FFFFFF;stroke-width:1.5;stroke-linecap:round;stroke-linejoin:round;}
	.st2{fill:#333333;stroke:#FFFFFF;stroke-width:1.5;stroke-linecap:round;}
	.st3{fill:none;stroke:#FFFFFF;stroke-width:1.5;stroke-linecap:round;}
</style>
<g transform="translate(-3)">
	<polygon class="st0" points="3,0 27,0 27,24 3,24 	"/>
	<g transform="translate(3.333 1.333)">
		<path class="st1" d="M19.8,18.6c0,1-0.8,1.8-1.8,1.8H5.5c-1,0-1.8-0.8-1.8-1.8v-9c0-1,0.8-1.8,1.8-1.8H18c1,0,1.8,0.8,1.8,1.8
			V18.6z"/>
		<path class="st2" d="M12.7,12.4c0,0.5-0.4,0.9-0.9,0.9s-0.9-0.4-0.9-0.9c0-0.5,0.4-0.9,0.9-0.9S12.7,11.9,12.7,12.4z"/>
		<path class="st3" d="M11.8,13.2v2.7"/>
		<path class="st1" d="M16.3,5.2v2.3 M7.3,7.7V5.2 M7.3,5.2c0-2.5,2-4.5,4.5-4.5c2.5,0,4.5,2,4.5,4.5"/>
	</g>
</g>
</svg>
